<?xml version="1.0" encoding="UTF-8"?>
<svg version="1.1" xmlns="http://www.w3.org/2000/svg" width="756" height="640">
<path d="M0 0 C249.48 0 498.96 0 756 0 C756 211.2 756 422.4 756 640 C506.52 640 257.04 640 0 640 C0 428.8 0 217.6 0 0 Z " fill="#FBFBFB" transform="translate(0,0)"/>
<path d="M0 0 C7.78364235 1.6425714 15.61231026 2.95451671 23.4621582 4.23754883 C32.63438685 5.74121153 41.78597147 7.28871271 50.91137695 9.05395508 C55.2776446 9.8755368 59.66073537 10.57160037 64.05200195 11.24536133 C66.2121582 11.67504883 66.2121582 11.67504883 67.2121582 12.67504883 C67.33214829 14.30038674 67.38288253 15.93087974 67.40643311 17.56047058 C67.42370453 18.61862473 67.44097595 19.67677887 67.45877075 20.76699829 C67.47245697 21.93830292 67.48614319 23.10960754 67.50024414 24.31640625 C67.51805939 25.54252121 67.53587463 26.76863617 67.55422974 28.03190613 C67.70912131 39.38707935 67.79774498 50.74318428 67.86422348 62.09919262 C67.91430355 70.48446506 67.99992352 78.86776081 68.13284469 87.25213736 C68.22324717 93.15547079 68.27073849 99.05826734 68.28780198 104.96226197 C68.29920393 108.48270948 68.32900182 112.00063533 68.40575409 115.52031517 C68.95243688 141.69908369 68.95243688 141.69908369 60.38289261 150.83413219 C59.02619712 152.14993623 57.62065133 153.41484646 56.2121582 154.67504883 C55.00387225 156.02207561 53.80727277 157.38000997 52.63793945 158.76098633 C51.60688232 159.8636469 50.56917643 160.96013102 49.5246582 162.05004883 C48.94997803 162.65671387 48.37529785 163.26337891 47.78320312 163.88842773 C45.93623201 165.82726455 44.07674278 167.7531512 42.2121582 169.67504883 C41.54958008 170.35954102 40.88700195 171.0440332 40.2043457 171.74926758 C33.09734763 179.0589367 25.99172435 186.18491372 17.95825195 192.48754883 C15.36038892 194.5569703 12.87248986 196.70853193 10.38232422 198.90405273 C1.76747588 206.4664742 -7.38657046 213.12995239 -16.7878418 219.67504883 C-17.70243164 220.31958008 -18.61702148 220.96411133 -19.55932617 221.62817383 C-22.39445484 223.61990479 -25.24460149 225.5880141 -28.1003418 227.55004883 C-29.43464233 228.48856689 -29.43464233 228.48856689 -30.79589844 229.44604492 C-32.05454712 230.29803467 -32.05454712 230.29803467 -33.33862305 231.16723633 C-34.07765869 231.67625488 -34.81669434 232.18527344 -35.578125 232.7097168 C-38.41200649 233.94772005 -39.87226541 233.57044462 -42.7878418 232.67504883 C-52.71733951 227.98394755 -61.54751519 220.99543755 -70.33325195 214.49145508 C-72.83716375 212.63855039 -75.34956734 210.79754457 -77.86206055 208.95629883 C-87.71949417 201.69015546 -97.19075545 194.15047536 -106.31616211 185.98364258 C-108.15486556 184.34869724 -110.03492314 182.76465632 -111.9128418 181.17504883 C-121.41253969 172.81365896 -130.02972904 163.66948591 -137.7878418 153.67504883 C-138.35468217 153.08771752 -138.92152254 152.50038622 -139.50553989 151.895257 C-145.40982022 145.3588025 -145.76079505 140.02478147 -145.58251953 131.44433594 C-145.58354172 130.14579681 -145.5845639 128.84725769 -145.58561707 127.5093689 C-145.58761297 123.97419847 -145.54666923 120.44071487 -145.49759936 116.9059341 C-145.45362628 113.20247921 -145.44971156 109.49897902 -145.44142151 105.79530334 C-145.41972679 98.79349623 -145.36236956 91.79246074 -145.29197508 84.79099232 C-145.21353787 76.81522857 -145.17519674 68.83942656 -145.14010704 60.86337268 C-145.06708001 44.46681415 -144.94407877 28.07103019 -144.7878418 11.67504883 C-143.89665649 11.51849319 -143.00547119 11.36193756 -142.08728027 11.20063782 C-127.01292413 8.55085054 -111.93908698 5.89983351 -96.8815918 3.15551758 C-95.82383545 2.96313507 -94.7660791 2.77075256 -93.67626953 2.57254028 C-89.46271849 1.80598535 -85.2492718 1.03893614 -81.03686523 0.26611328 C-77.86075117 -0.31601557 -74.68376342 -0.89315746 -71.5065918 -1.46948242 C-70.57117554 -1.64236282 -69.63575928 -1.81524323 -68.67199707 -1.99336243 C-45.78347533 -6.12480427 -22.67865014 -4.81660292 0 0 Z " fill="#141414" transform="translate(420.787841796875,40.324951171875)"/>
<path d="M0 0 C50.96226415 0 50.96226415 0 61 8.3125 C68.16985611 16.35460138 70.30187483 25.77224679 70.29052734 36.26489258 C70.29724457 37.16668747 70.30396179 38.06848236 70.31088257 38.99760437 C70.32979868 41.96330353 70.33378355 44.92877561 70.3359375 47.89453125 C70.34236988 49.96807445 70.34909857 52.04161675 70.35610962 54.11515808 C70.36806644 58.45675764 70.37179208 62.79827772 70.37060547 67.13989258 C70.37040238 72.68451895 70.39770162 78.22863221 70.43214989 83.77313709 C70.45446174 88.05501108 70.45844169 92.33676243 70.45738602 96.61868858 C70.45973563 98.66189021 70.46852281 100.70509555 70.48405075 102.74823952 C70.5813922 116.87911268 70.06048944 128.10952018 60 139 C58.69060614 140.03114766 57.36234504 141.03989908 56 142 C57.85126873 147.72269387 59.84812705 153.38097215 61.91796875 159.02734375 C62.18151154 159.74677155 62.44505432 160.46619934 62.71658325 161.20742798 C63.82144692 164.22056806 64.92786035 167.23312589 66.0378418 170.24438477 C66.85488303 172.46267656 67.66795978 174.68238864 68.48046875 176.90234375 C68.73354294 177.58562241 68.98661713 178.26890106 69.24736023 178.97288513 C71 183.77309481 71 183.77309481 71 186 C62.09 186 53.18 186 44 186 C42.14414172 180.92953006 40.29124312 175.85817772 38.44580078 170.78393555 C37.81699393 169.05771954 37.18646895 167.33212839 36.55419922 165.60717773 C35.64619815 163.1290618 34.74437989 160.64877158 33.84375 158.16796875 C33.55939087 157.39599655 33.27503174 156.62402435 32.98205566 155.82865906 C31.87403603 152.76126164 31 150.28793881 31 147 C29.02 147 27.04 147 25 147 C25 159.87 25 172.74 25 186 C16.75 186 8.5 186 0 186 C0 124.62 0 63.24 0 0 Z " fill="#141414" transform="translate(270,437)"/>
<path d="M0 0 C0.88409546 -0.00473328 1.76819092 -0.00946655 2.67907715 -0.01434326 C22.40729258 -0.03407762 41.32066613 3.3148315 60.58889771 7.27046204 C66.6539776 8.50789851 72.70048878 9.4813998 78.84326172 10.26074219 C81.82612721 10.69867675 84.70002784 11.33631253 87.625 12.0625 C95.20649519 13.92015492 102.89912896 15.07028319 110.61279297 16.24169922 C111.61971191 16.40041504 112.62663086 16.55913086 113.6640625 16.72265625 C114.5710791 16.8606665 115.4780957 16.99867676 116.41259766 17.14086914 C118.75 17.6875 118.75 17.6875 121.75 19.6875 C122.14707661 22.11494923 122.14707661 22.11494923 122.17805481 25.23139954 C122.1966304 26.41017166 122.21520599 27.58894379 122.23434448 28.80343628 C122.2392691 30.10362701 122.24419373 31.40381775 122.24926758 32.7434082 C122.26478761 34.12162086 122.28148362 35.49982071 122.29927063 36.87800598 C122.34297631 40.63068659 122.3663852 44.38322118 122.38349748 48.13610864 C122.39451301 50.48439358 122.40879934 52.83263746 122.42401695 55.18089867 C122.47045622 62.53801184 122.50399333 69.89502706 122.5200327 77.25227004 C122.53871297 85.72513296 122.59990842 94.19625614 122.69853479 102.66855747 C122.77221723 109.22673573 122.80693058 115.78442452 122.81289595 122.3430106 C122.8173223 126.25483314 122.83772851 130.16493842 122.89899635 134.07631874 C123.3171211 162.30001159 123.3171211 162.30001159 116.95581055 169.86010742 C115.26695739 171.517889 113.53372322 173.13225205 111.75 174.6875 C110.26102757 176.49603762 108.79808566 178.32667373 107.375 180.1875 C96.58794599 193.25350909 84.79685239 205.90380667 71.53515625 216.4609375 C68.72191955 218.7099486 65.98879689 221.0361665 63.25 223.375 C49.84948693 234.52768507 35.61384831 244.37698473 20.74267578 253.45556641 C19.02655197 254.51652704 17.33662443 255.61965059 15.65234375 256.73046875 C10.54670283 260.05268641 5.98217633 262.57927523 -0.25 261.6875 C-4.55364546 260.22452296 -8.3746549 258.02837314 -12.25 255.6875 C-12.98138184 255.24615723 -13.71276367 254.80481445 -14.46630859 254.35009766 C-23.06503175 249.11143145 -31.52930182 243.71026062 -39.58984375 237.66796875 C-41.56427258 236.19801954 -43.54738463 234.76929317 -45.56640625 233.36328125 C-53.87108298 227.56897324 -61.62209979 221.34382484 -69.25 214.6875 C-69.95382812 214.08421875 -70.65765625 213.4809375 -71.3828125 212.859375 C-73.35838876 211.15657705 -75.3062903 209.42660868 -77.25 207.6875 C-77.96905518 207.05207275 -77.96905518 207.05207275 -78.70263672 206.40380859 C-86.30992603 199.66156221 -93.00459437 192.74455001 -99.25 184.6875 C-99.92546875 183.87796875 -100.6009375 183.0684375 -101.296875 182.234375 C-110.77264421 170.84876083 -116.49397656 162.2638719 -116.17407227 147.10058594 C-116.17345091 145.6914392 -116.17635912 144.28228726 -116.18247986 142.87315369 C-116.18897931 139.09010017 -116.14646489 135.30908574 -116.09408307 131.52645016 C-116.04741906 127.55656035 -116.04600505 123.58663801 -116.03929138 119.61651611 C-116.02189751 112.96582983 -115.97570295 106.31588927 -115.90844727 99.66552734 C-115.81350929 90.27444928 -115.77042185 80.88365267 -115.73781502 71.49217939 C-115.69141486 58.9207981 -115.63119538 46.3490971 -115.50945473 33.77820015 C-115.49089042 31.76631936 -115.47703544 29.75439688 -115.46328735 27.74247742 C-115.45035141 26.5566658 -115.43741547 25.37085419 -115.42408752 24.14910889 C-115.41461877 23.11238415 -115.40515001 22.07565941 -115.39539433 21.00751877 C-115.25 18.6875 -115.25 18.6875 -114.25 17.6875 C-112.91444818 17.37735193 -111.56642193 17.12054494 -110.21533203 16.88720703 C-109.35577911 16.73679962 -108.4962262 16.58639221 -107.61062622 16.431427 C-106.66919769 16.27100922 -105.72776917 16.11059143 -104.7578125 15.9453125 C-103.78327118 15.77627411 -102.80872986 15.60723572 -101.80465698 15.43307495 C-99.72507514 15.07313897 -97.64515754 14.71513854 -95.56494141 14.35888672 C-92.45012669 13.82536802 -89.33631304 13.28632438 -86.22265625 12.74609375 C-75.9482395 10.97000479 -65.67013321 9.23599659 -55.36038208 7.67605591 C-50.00467016 6.85394939 -44.77476589 5.70198395 -39.50439453 4.44067383 C-26.3121512 1.38755525 -13.53038335 0.01883921 0 0 Z M-46.125 17.4375 C-49.7053544 18.10099457 -53.28620631 18.76177243 -56.8671875 19.421875 C-58.24303009 19.67608215 -58.24303009 19.67608215 -59.64666748 19.9354248 C-74.16530848 22.60673621 -88.70996356 25.13577975 -103.25 27.6875 C-103.50779638 44.78645963 -103.70134035 61.88480668 -103.81993389 78.98526955 C-103.87648116 86.92671579 -103.95346767 94.86694962 -104.07983398 102.80761719 C-104.19001726 109.73471296 -104.26056621 116.66093023 -104.28497344 123.58887804 C-104.29922633 127.25243341 -104.33232915 130.91347736 -104.41303062 134.57622147 C-105.38847871 154.2253902 -105.38847871 154.2253902 -96.44106579 170.88572121 C-95.07841368 172.18986706 -93.66554077 173.44096019 -92.25 174.6875 C-90.97068982 176.10410125 -89.70403282 177.53254716 -88.46484375 178.984375 C-87.37884852 180.14150669 -86.28654256 181.29275338 -85.1875 182.4375 C-84.30227661 183.37070068 -84.30227661 183.37070068 -83.39916992 184.32275391 C-81.6899709 186.11807446 -79.9714159 187.9039017 -78.25 189.6875 C-76.90035156 191.09902344 -76.90035156 191.09902344 -75.5234375 192.5390625 C-69.7930417 198.41499217 -63.67641366 203.59268557 -57.25 208.6875 C-56.08102683 209.63417773 -54.91310815 210.58215865 -53.74609375 211.53125 C-41.77173155 221.24224279 -29.35153408 230.24866537 -16.75 239.125 C-15.91315674 239.71651855 -15.07631348 240.30803711 -14.21411133 240.91748047 C-11.90834447 242.53209574 -9.58669317 244.11805586 -7.25 245.6875 C-6.2909375 246.34709717 -6.2909375 246.34709717 -5.3125 247.02001953 C-2.59180857 248.76147087 -0.60325276 249.67462844 2.64453125 249.79296875 C7.08881263 248.21091638 10.61230462 245.72654031 14.4375 243 C15.26403076 242.4212915 16.09056152 241.84258301 16.94213867 241.24633789 C19.55505742 239.40743423 22.15396509 237.55014775 24.75 235.6875 C25.57918945 235.09614258 26.40837891 234.50478516 27.26269531 233.89550781 C37.27861603 226.72993631 46.88661159 219.27291458 56.11132812 211.11572266 C57.71388549 209.71897644 59.3415516 208.36075618 60.984375 207.01171875 C68.55487213 200.75933924 75.59995324 194.0472973 82.5625 187.125 C83.43398682 186.26269775 84.30547363 185.40039551 85.20336914 184.51196289 C91.13917924 178.54791661 96.55106353 172.30055605 101.75 165.6875 C102.60504025 164.7941608 102.60504025 164.7941608 103.47735405 163.88277435 C109.24862044 157.45266045 109.72695718 152.35029877 109.54467773 143.91577148 C109.54621101 142.04111458 109.54621101 142.04111458 109.54777527 140.12858582 C109.54375516 136.72721034 109.50884644 133.32886957 109.45975757 129.92803073 C109.41576951 126.36471565 109.41186862 122.80135294 109.40357971 119.23780823 C109.38188928 112.50160607 109.32453819 105.76620645 109.25413328 99.03035647 C109.17568242 91.35688883 109.13735158 83.6833813 109.10226524 76.00961196 C109.02924801 60.23511111 108.90625549 44.46140935 108.75 28.6875 C105.58872303 27.38740792 102.80206383 26.39989918 99.40625 25.9765625 C98.58382812 25.86844238 97.76140625 25.76032227 96.9140625 25.64892578 C96.03492188 25.53790527 95.15578125 25.42688477 94.25 25.3125 C87.03723934 24.34222385 79.89060622 23.21895127 72.75 21.8125 C64.08207177 20.1087549 55.39415643 18.55598563 46.6875 17.0625 C45.48673828 16.85641113 44.28597656 16.65032227 43.04882812 16.43798828 C39.61643972 15.8511698 36.18340074 15.26836386 32.75 14.6875 C31.64100342 14.49913574 30.53200684 14.31077148 29.3894043 14.11669922 C28.335354 13.93896973 27.28130371 13.76124023 26.1953125 13.578125 C25.26605957 13.42118164 24.33680664 13.26423828 23.37939453 13.10253906 C15.78796185 11.90426278 8.23655274 11.57568252 0.5625 11.5 C-0.53106812 11.48042236 -0.53106812 11.48042236 -1.64672852 11.46044922 C-16.60580846 11.43793744 -31.48164443 14.70477031 -46.125 17.4375 Z " fill="#F7F7F7" transform="translate(379.25,24.3125)"/>
<path d="M0 0 C2.1890993 0.32881799 4.38454455 0.61573715 6.58203125 0.8828125 C14.28504345 1.85900834 21.91711279 3.12741584 29.55932617 4.49462891 C31.66840893 4.87158783 33.77844148 5.24280713 35.88867188 5.61328125 C42.52107145 6.78650392 49.13618099 8.01530022 55.73303986 9.37513733 C67.68808552 11.82958542 79.69953629 13.82873328 91.75 15.75 C93.73052452 16.06866402 95.71099356 16.38767299 97.69140625 16.70703125 C102.46031117 17.47530897 107.22992921 18.23899597 112 19 C112.28120432 38.93276863 112.49235941 58.86513092 112.62174606 78.79947662 C112.6834391 88.05693651 112.76743601 97.31315902 112.90527344 106.56982422 C113.0254555 114.64471716 113.10243211 122.71871349 113.12906194 130.79447603 C113.14461293 135.06509805 113.18074609 139.33315679 113.26876068 143.60295105 C113.89968507 175.42562749 113.89968507 175.42562749 104.56071091 185.66431427 C103.53709646 186.68131935 102.49403302 187.6792837 101.4287796 188.65258789 C99.34018368 190.62224047 97.69568098 192.87948148 96 195.1875 C84.71549752 209.09576541 71.8472628 222.63370512 58 234 C57.34 234.54914063 56.68 235.09828125 56 235.6640625 C41.65872871 247.36614151 26.73366479 258.25179598 11 268 C10.37416016 268.38800781 9.74832031 268.77601563 9.10351562 269.17578125 C6.3528948 270.87701538 3.59702218 272.56825522 0.83203125 274.24609375 C-1.18514128 275.49534957 -3.16388964 276.80756709 -5.11328125 278.16015625 C-7.62926833 279.763715 -9.12044553 280.56568703 -12 281 C-12.66515625 281.12503906 -13.3303125 281.25007813 -14.015625 281.37890625 C-26.15057177 282.37600852 -37.43580301 273.49981961 -47 267 C-48.43999665 266.04474669 -49.88138826 265.09159263 -51.32421875 264.140625 C-71.46225896 250.81794011 -90.56921049 236.77732487 -108 220 C-108.60730957 219.41992188 -109.21461914 218.83984375 -109.84033203 218.2421875 C-144.46684078 185.02053073 -144.46684078 185.02053073 -145.12304783 170.22578144 C-145.12212604 169.09289786 -145.12120424 167.96001429 -145.12025452 166.7928009 C-145.12162918 165.49289719 -145.12300385 164.19299347 -145.12442017 162.85369873 C-145.120881 161.41003395 -145.11724619 159.9663694 -145.11352539 158.52270508 C-145.11324337 157.00504051 -145.11340155 155.4873758 -145.1139679 153.9697113 C-145.11425528 149.84604161 -145.10836796 145.7224009 -145.10139394 141.59873796 C-145.09515071 137.29057349 -145.09455583 132.9824084 -145.09336853 128.67424011 C-145.09025808 120.51449473 -145.08204853 112.35476272 -145.07201904 104.19502324 C-145.06084903 94.90613586 -145.05534521 85.61724785 -145.05032361 76.32835543 C-145.0398657 57.21889604 -145.02227178 38.10944909 -145 19 C-141.99550327 18.35199722 -138.99022526 17.70807495 -135.984375 17.06640625 C-135.14310059 16.88452759 -134.30182617 16.70264893 -133.43505859 16.51525879 C-127.16793777 15.18205472 -120.94671649 14.26524593 -114.5859375 13.4921875 C-110.97118142 12.99604451 -107.44493273 12.31365721 -103.875 11.5625 C-96.90331105 10.10518267 -89.9117503 9.07793835 -82.84716797 8.17797852 C-78.09950586 7.54609543 -73.48826278 6.68611002 -68.828125 5.57421875 C-61.39744827 3.81165394 -53.91725402 2.48531391 -46.375 1.3125 C-45.66898651 1.20194275 -44.96297302 1.0913855 -44.23556519 0.97747803 C-8.89051302 -4.44525651 -8.89051302 -4.44525651 0 0 Z M-62.93920898 14.31396484 C-72.04852674 16.35569595 -81.31144372 17.75710699 -90.5078125 19.34765625 C-93.72102282 19.90608344 -96.93415808 20.46494012 -100.14726448 21.02396488 C-103.48977115 21.60523631 -106.83252245 22.18503197 -110.17578125 22.76196289 C-114.05805103 23.43201743 -117.93919824 24.10843951 -121.8203125 24.78515625 C-123.02744904 24.99245865 -124.23458557 25.19976105 -125.478302 25.41334534 C-126.58390472 25.60702194 -127.68950745 25.80069855 -128.82861328 26.00024414 C-130.2944133 26.254338 -130.2944133 26.254338 -131.78982544 26.51356506 C-133.96348753 26.78395745 -133.96348753 26.78395745 -135 28 C-135.1182842 29.81102553 -135.16634418 31.62666117 -135.18754578 33.44142151 C-135.20337204 34.62289764 -135.2191983 35.80437378 -135.23550415 37.02165222 C-135.24761932 38.33007584 -135.2597345 39.63849945 -135.2722168 40.98657227 C-135.28829611 42.369612 -135.30467586 43.75264828 -135.32133484 45.13568115 C-135.46657816 57.8191634 -135.54123485 70.503647 -135.60025311 83.18779087 C-135.64467427 92.55324217 -135.72151064 101.91721289 -135.84183758 111.28200299 C-135.92367257 117.87582105 -135.96646161 124.46923788 -135.98155528 131.06354183 C-135.9916589 134.99512459 -136.01843678 138.92484733 -136.08786583 142.85586739 C-136.5804643 166.73608276 -136.5804643 166.73608276 -125 187 C-123.81795327 188.50726738 -122.63758762 190.01585974 -121.4609375 191.52734375 C-120.44420836 192.67473367 -119.41593358 193.81202275 -118.375 194.9375 C-117.82432861 195.55173828 -117.27365723 196.16597656 -116.70629883 196.79882812 C-115.62830434 198.00008076 -114.54595774 199.19744766 -113.45849609 200.39013672 C-111.4940723 202.55843442 -109.59676988 204.78314637 -107.6875 207 C-104.71586431 210.32451743 -101.57026615 213.2709579 -98.1640625 216.14453125 C-95.726442 218.23454883 -93.404302 220.42823408 -91.0625 222.625 C-80.76043464 232.01259631 -69.40654126 240.20967309 -57.88671875 248.03125 C-55.34359773 249.76566542 -52.86109818 251.5607046 -50.375 253.375 C-43.27917349 258.36315527 -35.65793334 262.62158204 -28.08007812 266.83007812 C-26.35310424 267.80139959 -24.66312228 268.83814614 -22.984375 269.890625 C-18.04377985 271.72718131 -13.63175397 271.17224044 -8.83496094 269.03564453 C-6.61634617 267.79475034 -4.49762634 266.46106389 -2.375 265.0625 C-1.6001123 264.56959473 -0.82522461 264.07668945 -0.02685547 263.56884766 C2.32734532 262.06345018 4.66462813 260.53440136 7 259 C8.35920537 258.12083145 9.71857137 257.24191116 11.078125 256.36328125 C18.96165961 251.22432532 26.55475028 245.75880963 34 240 C34.56605957 239.5654248 35.13211914 239.13084961 35.71533203 238.68310547 C42.63373625 233.3663411 49.36091878 227.94529681 55.78515625 222.03125 C57.75839244 220.22158012 59.77107813 218.48160109 61.8125 216.75 C71.44842875 208.32343883 80.13286275 199.09163812 88 189 C88.96282816 187.78068624 89.92641218 186.56196908 90.890625 185.34375 C93.60662698 181.90568896 96.31157856 178.45968989 99 175 C99.53628839 174.39758547 100.07257679 173.79517094 100.62511635 173.17450142 C102.41367664 170.3457334 102.37732655 168.47690406 102.38095093 165.14157104 C102.39364014 163.34544373 102.39364014 163.34544373 102.40658569 161.51303101 C102.400513 160.20274933 102.39444031 158.89246765 102.38818359 157.54248047 C102.39224944 156.14613433 102.39759139 154.74979141 102.40411377 153.35345459 C102.41778931 149.56434155 102.41248852 145.77547358 102.40297651 141.98635626 C102.39538413 138.02345968 102.40242407 134.06058416 102.40713501 130.09768677 C102.41259252 123.4448062 102.40539976 116.79202556 102.39111328 110.13916016 C102.37477331 102.44099461 102.38008497 94.74306726 102.3965925 87.04490745 C102.41019154 80.43930927 102.41213521 73.83378293 102.40427649 67.22817528 C102.39959296 63.28108381 102.39899395 59.33410444 102.40888596 55.38702011 C102.41753091 51.67858176 102.4115795 47.97045174 102.39420319 44.26204681 C102.38832346 42.24667285 102.39727398 40.2312729 102.40658569 38.21591187 C102.39812622 37.0241333 102.38966675 35.83235474 102.38095093 34.60446167 C102.37981985 33.5643437 102.37868877 32.52422573 102.37752342 31.45258904 C102.25294069 30.64323465 102.12835796 29.83388027 102 29 C98.4520975 26.63473167 95.23801269 26.1792494 91.12109375 25.52734375 C89.96928368 25.3353817 89.96928368 25.3353817 88.79420471 25.13954163 C86.34304473 24.73199869 83.89043793 24.33418925 81.4375 23.9375 C78.98125382 23.53584817 76.5253875 23.13211986 74.07008362 22.7247467 C72.54263952 22.47176895 71.0146022 22.22234266 69.48594666 21.97679138 C64.22293965 21.11146982 64.22293965 21.11146982 62 20 C60.19211366 19.7185693 58.37806613 19.47666244 56.5625 19.25 C48.14621101 18.09720244 39.81927622 16.52534128 31.47485352 14.94042969 C29.22147575 14.51470468 26.96684944 14.09554866 24.71118164 13.68212891 C22.7959238 13.33009743 20.88083806 12.97669743 18.96969604 12.60296631 C6.78087087 10.22305868 -5.02847613 9.44183159 -17.4375 9.5 C-18.8019072 9.50015106 -18.8019072 9.50015106 -20.19387817 9.50030518 C-34.86811259 9.53209991 -48.65104643 10.78725739 -62.93920898 14.31396484 Z " fill="#171717" transform="translate(399,15)"/>
<path d="M0 0 C8.07576065 5.35854043 14.21443268 13.06762551 16.62670898 22.53100586 C17.19753214 26.13222387 17.20191238 29.6700133 17.17578125 33.3046875 C17.1743663 34.05227829 17.17295135 34.79986908 17.17149353 35.57011414 C17.16592264 37.9439199 17.1533756 40.31762928 17.140625 42.69140625 C17.13560623 44.30663926 17.13104399 45.92187375 17.12695312 47.53710938 C17.11681617 51.48444147 17.0972353 55.43156672 17.078125 59.37890625 C8.828125 59.37890625 0.578125 59.37890625 -7.921875 59.37890625 C-7.97085938 57.1875 -8.01984375 54.99609375 -8.0703125 52.73828125 C-8.12436102 50.61012083 -8.18165316 48.48207068 -8.23925781 46.35400391 C-8.27748166 44.87785089 -8.31234603 43.40160682 -8.34375 41.92529297 C-8.38954486 39.80012531 -8.44751337 37.67558083 -8.5078125 35.55078125 C-8.5392334 34.27299805 -8.5706543 32.99521484 -8.60302734 31.67871094 C-8.89979642 28.60740098 -9.18502296 26.88598902 -10.921875 24.37890625 C-13.91869632 22.38102537 -14.86272646 22.01955397 -18.296875 21.87890625 C-19.04710937 21.82734375 -19.79734375 21.77578125 -20.5703125 21.72265625 C-23.47067562 22.53205991 -25.09220299 23.85807836 -26.90527344 26.25195312 C-30.83546872 34.47478245 -30.00602426 49.24566258 -27.12792969 57.71533203 C-25.14854801 61.52938103 -22.40315656 64.56526548 -19.46191406 67.66650391 C-16.53782263 70.91786366 -14.12331845 74.55797677 -11.609375 78.12890625 C-10.50605656 79.65910482 -9.40056809 81.18774096 -8.29296875 82.71484375 C-6.03122705 85.84223898 -3.77367408 88.97259228 -1.51953125 92.10546875 C-0.95854736 92.88438477 -0.39756348 93.66330078 0.18041992 94.46582031 C1.22966333 95.92285235 2.2780926 97.38047127 3.32543945 98.83886719 C3.81616943 99.51981445 4.30689941 100.20076172 4.8125 100.90234375 C5.31305908 101.61817627 5.81361816 102.33400879 6.3293457 103.0715332 C8.09083969 105.48487833 8.09083969 105.48487833 10.44213867 107.86401367 C18.16654306 116.50245861 18.33699703 123.99299328 17.97680664 135.19702148 C17.89063864 137.94097179 17.87429106 140.67864545 17.86914062 143.42382812 C17.73409926 156.21405062 16.40498566 167.69096827 7.17578125 177.375 C-1.50604208 185.69063043 -9.50452454 188.03397902 -21.30615234 187.91796875 C-27.8018724 187.6457827 -32.62962491 186.2884964 -37.921875 182.37890625 C-39.10330078 181.52425781 -39.10330078 181.52425781 -40.30859375 180.65234375 C-47.40017545 174.95563515 -52.52272948 167.47452265 -53.921875 158.37890625 C-54.00368192 155.65464794 -54.03853066 152.95759319 -54.01953125 150.234375 C-54.01740883 149.07969475 -54.01740883 149.07969475 -54.01524353 147.90168762 C-54.00967106 145.45655337 -53.99712371 143.01151257 -53.984375 140.56640625 C-53.97935644 138.90299612 -53.97479415 137.23958455 -53.97070312 135.57617188 C-53.96056392 131.51035218 -53.94098332 127.44473314 -53.921875 123.37890625 C-45.671875 123.37890625 -37.421875 123.37890625 -28.921875 123.37890625 C-28.89609375 125.54710937 -28.8703125 127.7153125 -28.84375 129.94921875 C-28.80526509 132.06425597 -28.76012619 134.17905468 -28.71435547 136.29394531 C-28.6862439 137.7563933 -28.66498069 139.21899045 -28.65087891 140.68164062 C-28.62931081 142.79243794 -28.58259844 144.90146054 -28.53125 147.01171875 C-28.51030273 148.27902832 -28.48935547 149.54633789 -28.46777344 150.85205078 C-27.83265163 154.95534668 -26.50161185 157.16238363 -23.921875 160.37890625 C-20.82138572 161.92915089 -18.34293282 161.6688264 -14.921875 161.37890625 C-11.53247944 159.2421134 -10.19604943 158.20142955 -8.921875 154.37890625 C-6.69543871 135.79830301 -6.69543871 135.79830301 -13.171875 119.19140625 C-14.57484413 117.75489215 -15.97930801 116.31882774 -17.42919922 114.9296875 C-20.26052164 111.98815004 -22.44146502 108.55686751 -24.734375 105.19140625 C-25.74645778 103.74192286 -26.76081188 102.29402294 -27.77734375 100.84765625 C-28.29087402 100.11546875 -28.8044043 99.38328125 -29.33349609 98.62890625 C-32.52632773 94.10613706 -35.78020725 89.62729716 -39.03051758 85.14575195 C-40.05782604 83.72835187 -41.07186674 82.30127111 -42.07470703 80.86645508 C-43.96908213 78.24182599 -43.96908213 78.24182599 -46.51513672 75.4440918 C-54.40125728 66.19182063 -55.33647248 58.24125618 -54.89599609 46.30004883 C-54.79634216 43.55171117 -54.77296816 40.81053756 -54.76171875 38.06054688 C-54.73356359 36.28508108 -54.70116067 34.50967645 -54.6640625 32.734375 C-54.6533371 31.92792038 -54.64261169 31.12146576 -54.63156128 30.29057312 C-54.18312142 19.42159138 -48.46615955 10.44636398 -40.671875 3.12890625 C-29.00270008 -6.40914987 -12.98884528 -6.92908872 0 0 Z " fill="#121212" transform="translate(138.921875,436.62109375)"/>
<path d="M0 0 C8.25 0 16.5 0 25 0 C25.25692627 1.86954346 25.51385254 3.73908691 25.77856445 5.6652832 C26.63912369 11.92387505 27.50145503 18.18222085 28.36492634 24.44041157 C28.88708953 28.22535801 29.40859626 32.01039221 29.9284668 35.7956543 C30.52970113 40.17264553 31.13329771 44.54930675 31.73828125 48.92578125 C31.83636204 49.63653934 31.93444283 50.34729744 32.03549576 51.07959366 C33.29458941 60.18720878 34.59460442 69.28546764 36.17195129 78.34455872 C36.88936965 82.60721214 37.10825023 86.68015001 37 91 C37.66 91 38.32 91 39 91 C39.05115967 90.24211182 39.10231934 89.48422363 39.1550293 88.70336914 C39.78540299 79.91334278 40.73489627 71.18265883 41.8125 62.4375 C41.94214142 61.37341919 41.94214142 61.37341919 42.07440186 60.2878418 C43.44930843 49.01568296 44.9885313 37.77436695 46.63110352 26.5378418 C47.91854067 17.70554439 49.01433801 8.87095795 50 0 C58.25 0 66.5 0 75 0 C74.39655316 10.11980352 73.50363819 20.12370886 72.25 30.1875 C72.07485555 31.61523263 71.89972574 33.04296705 71.72460938 34.47070312 C70.32866981 45.75563949 68.77018459 57.01627602 67.17834473 68.2749939 C65.66259333 79.00380645 64.26992741 89.73940202 63 100.5 C61.54852852 112.79445855 59.91730567 125.05545888 58.18127441 137.31289673 C57.00062133 145.65191267 55.8555144 153.99210405 54.828125 162.3515625 C54.6897522 163.47657417 54.6897522 163.47657417 54.54858398 164.62431335 C54.11024033 168.20385058 53.67902856 171.78411688 53.25585938 175.36547852 C53.10439453 176.62030029 52.95292969 177.87512207 52.796875 179.16796875 C52.60109863 180.82735474 52.60109863 180.82735474 52.40136719 182.52026367 C52 185 52 185 51 186 C49.07332493 186.08748207 47.14348139 186.10697334 45.21484375 186.09765625 C44.04501953 186.09443359 42.87519531 186.09121094 41.66992188 186.08789062 C40.43822266 186.07951172 39.20652344 186.07113281 37.9375 186.0625 C36.08415039 186.05573242 36.08415039 186.05573242 34.19335938 186.04882812 C31.12885883 186.03699608 28.06445279 186.02051173 25 186 C22.83373267 171.83045235 20.79265475 157.65928711 19 143.4375 C17.64689824 132.71242313 16.120147 122.03193922 14.4296875 111.35522461 C13.16143241 103.26697768 12.12018583 95.1653775 11.14428711 87.03735352 C10.11083557 78.56888881 8.81421072 70.15231311 7.48266602 61.72631836 C6.17475936 53.36235233 5.08596342 44.98500353 4.08081055 36.57983398 C3.21806889 29.4596883 2.17173959 22.38592272 0.91381836 15.32446289 C0.00858444 10.00568097 0 5.56903043 0 0 Z " fill="#131313" transform="translate(368,437)"/>
<path d="M0 0 C20.13 0 40.26 0 61 0 C61 7.92 61 15.84 61 24 C49.12 24 37.24 24 25 24 C25 36.87 25 49.74 25 63 C36.88 63 48.76 63 61 63 C61 70.92 61 78.84 61 87 C49.12 87 37.24 87 25 87 C25 111.42 25 135.84 25 161 C37.21 161 49.42 161 62 161 C62 169.25 62 177.5 62 186 C41.54 186 21.08 186 0 186 C0 124.62 0 63.24 0 0 Z " fill="#141414" transform="translate(182,437)"/>
<path d="M0 0 C20.13 0 40.26 0 61 0 C61 7.92 61 15.84 61 24 C49.12 24 37.24 24 25 24 C25 36.87 25 49.74 25 63 C36.88 63 48.76 63 61 63 C61 70.92 61 78.84 61 87 C49.12 87 37.24 87 25 87 C25 111.42 25 135.84 25 161 C36.88 161 48.76 161 61 161 C61 169.25 61 177.5 61 186 C40.87 186 20.74 186 0 186 C0 124.62 0 63.24 0 0 Z " fill="#121212" transform="translate(617,437)"/>
<path d="M0 0 C6.82981476 5.70607924 11.37451212 13.04888339 13.13671875 21.78515625 C13.55100269 27.14152886 13.32047954 32.41015317 13.13671875 37.78515625 C4.88671875 37.78515625 -3.36328125 37.78515625 -11.86328125 37.78515625 C-11.92515625 35.57828125 -11.98703125 33.37140625 -12.05078125 31.09765625 C-12.38573103 26.68078519 -12.58728132 24.25090614 -14.86328125 20.41015625 C-18.82458379 18.26445071 -22.45425942 17.64149227 -26.86328125 18.78515625 C-29.34997952 20.80969831 -30.70250298 22.01811507 -31.36943913 25.19993496 C-31.37224605 26.10417233 -31.37505297 27.00840971 -31.37794495 27.94004822 C-31.3906694 28.98167618 -31.40339386 30.02330414 -31.41650391 31.09649658 C-31.40997803 32.23375183 -31.40345215 33.37100708 -31.39672852 34.54272461 C-31.40534409 35.74472 -31.41395966 36.94671539 -31.4228363 38.18513489 C-31.44165009 41.47886022 -31.44239086 44.77157979 -31.43351483 48.06528163 C-31.42840293 50.81630256 -31.43569916 53.56723335 -31.44298691 56.31824499 C-31.45998655 62.80916737 -31.45641994 69.29985467 -31.43969727 75.79077148 C-31.42277714 82.4836113 -31.43860801 89.17579885 -31.47092015 95.86856741 C-31.49762561 101.61819688 -31.50488952 107.36762342 -31.49640507 113.11730868 C-31.4914783 116.54984389 -31.49367698 119.9819867 -31.51419258 123.41447258 C-31.53597785 127.2426388 -31.51714015 131.0700203 -31.49438477 134.89819336 C-31.51192307 136.60103989 -31.51192307 136.60103989 -31.52981567 138.33828735 C-31.60482164 144.72429908 -31.60482164 144.72429908 -28.4549408 149.98878479 C-24.44035072 152.77144004 -22.66443796 152.47103578 -17.86328125 151.78515625 C-15.43208502 149.91500531 -14.22258952 148.5037728 -12.86328125 145.78515625 C-12.71260911 144.33863205 -12.61467089 142.88636285 -12.546875 141.43359375 C-12.50876709 140.66708496 -12.47065918 139.90057617 -12.43139648 139.11083984 C-12.38829346 138.13711426 -12.34519043 137.16338867 -12.30078125 136.16015625 C-12.15640625 133.06640625 -12.01203125 129.97265625 -11.86328125 126.78515625 C-3.61328125 126.78515625 4.63671875 126.78515625 13.13671875 126.78515625 C13.99892057 154.89293547 13.99892057 154.89293547 4.51171875 166.72265625 C-2.91860413 174.39312264 -11.49904839 177.89304082 -21.98828125 178.09765625 C-33.13353327 178.08555792 -39.75269828 174.68970794 -47.734375 167.0078125 C-56.30566912 158.0590669 -57.31383027 147.89215741 -57.26733398 135.96679688 C-57.27419724 134.72318893 -57.28106049 133.47958099 -57.28813171 132.19828796 C-57.30320681 128.81589736 -57.30491916 125.4340621 -57.29918933 122.05167961 C-57.29607982 119.21634225 -57.3022092 116.3810538 -57.30822808 113.54572344 C-57.32222971 106.85221751 -57.3207479 100.15883934 -57.30932617 93.46533203 C-57.29784264 86.58397234 -57.31193423 79.70300229 -57.33872265 72.8216939 C-57.36094337 66.88929791 -57.36750294 60.95702367 -57.36164623 55.02458906 C-57.3582914 51.49199038 -57.36059286 47.9596415 -57.37789726 44.42707825 C-57.39636535 40.48573762 -57.38211386 36.54486954 -57.36499023 32.60351562 C-57.3746582 31.44893356 -57.38432617 30.2943515 -57.39428711 29.1047821 C-57.29266075 17.895233 -54.10192446 10.15547545 -46.37109375 2.0546875 C-32.83004276 -10.19975273 -14.73853246 -10.46873074 0 0 Z " fill="#131313" transform="translate(577.86328125,444.21484375)"/>
<path d="M0 0 C8.25 0 16.5 0 25 0 C25 61.38 25 122.76 25 186 C16.75 186 8.5 186 0 186 C0 124.62 0 63.24 0 0 Z " fill="#141414" transform="translate(470,436)"/>
<path d="M0 0 C2.57857704 0.60900593 2.57857704 0.60900593 4.85092163 1.3256073 C6.07166382 1.50220886 7.29240601 1.67881042 8.55014038 1.86076355 C9.53627319 2.03478699 10.52240601 2.20881042 11.53842163 2.3881073 C12.55291382 2.56470886 13.56740601 2.74131042 14.61264038 2.92326355 C15.35127319 3.05603699 16.08990601 3.18881042 16.85092163 3.3256073 C15.20817308 7.50909461 12.14148602 10.32249171 9.01867676 13.43200684 C8.41542442 14.04049585 7.81217209 14.64898486 7.19063938 15.27591294 C5.16565863 17.31590949 3.13357768 19.34868014 1.10140991 21.3815155 C-0.35089938 22.84144491 -1.8028041 24.30177687 -3.2543335 25.76248169 C-7.19976415 29.72987182 -11.15176234 33.69065579 -15.10564566 37.64962029 C-17.5734515 40.12106634 -20.03995329 42.59380627 -22.50601578 45.06699181 C-31.10283152 53.68830182 -39.70535271 62.30387623 -48.31265259 70.91471863 C-56.34749711 78.95320397 -64.36909947 87.00474117 -72.38482082 95.06229144 C-79.26010873 101.97220198 -86.14491638 108.87252942 -93.0371877 115.76549977 C-97.1568643 119.88597157 -101.27241591 124.01037435 -105.37829208 128.14460182 C-109.23655892 132.02891333 -113.10646107 135.90123268 -116.98582077 139.76447487 C-118.41080408 141.18763315 -119.83148724 142.61511149 -121.247612 144.04708481 C-123.17474982 145.99447614 -125.11648977 147.92599205 -127.06286621 149.85412598 C-127.62571095 150.43017069 -128.1885557 151.0062154 -128.76845634 151.59971601 C-132.5821855 155.3317438 -132.5821855 155.3317438 -135.36613655 155.30160809 C-138.15800905 153.77330821 -140.20350201 151.74504095 -142.46157837 149.5131073 C-143.36521118 148.64041199 -144.26884399 147.76771667 -145.19985962 146.86857605 C-147.14907837 144.3256073 -147.14907837 144.3256073 -147.10597801 142.52933979 C-145.68232378 139.25067509 -143.28022503 137.01266102 -140.78790283 134.5229187 C-140.2231123 133.94709811 -139.65832177 133.37127751 -139.07641637 132.77800781 C-137.17764555 130.84613808 -135.26821771 128.92516954 -133.35855103 127.0040741 C-131.99639546 125.62312383 -130.63481661 124.2416045 -129.27377319 122.85955811 C-124.79779559 118.32046833 -120.30580671 113.79738833 -115.81314087 109.27482605 C-114.267671 107.71721372 -112.72230568 106.15949764 -111.17704391 104.60167885 C-103.91739845 97.28488363 -96.65054917 89.97533781 -89.37477839 82.67457741 C-80.97445089 74.2449209 -72.59954469 65.79102559 -64.24535334 57.31564969 C-57.78731115 50.76716272 -51.30644377 44.24184018 -44.8079952 37.73345119 C-40.92668483 33.84508532 -37.05594223 29.9474152 -33.20897293 26.02504539 C-29.58900888 22.33528658 -25.94158112 18.67508821 -22.27117157 15.03552818 C-20.93003642 13.69588067 -19.59909846 12.34593334 -18.27943802 10.9851265 C-7.04669276 -0.57793155 -7.04669276 -0.57793155 0 0 Z " fill="#F7F7F7" transform="translate(449.1490783691406,55.67439270019531)"/>
<path d="M0 0 C0.66 0 1.32 0 2 0 C4.16183936 10.02668221 5.64155989 21.60908689 -0.1051178 30.67304993 C-6.61406234 39.72655425 -15.05580746 47.36517038 -23.10941029 55.01170444 C-26.6476053 58.39815518 -30.1098569 61.86069978 -33.58197021 65.31463623 C-39.40657842 71.08799342 -45.27782022 76.80984008 -51.18603516 82.49755859 C-59.52632243 90.52683118 -67.7720791 98.64834136 -76.00379801 106.78866625 C-82.40584825 113.11237699 -88.83488963 119.40861077 -95.265625 125.703125 C-95.95455369 126.37839894 -96.64348238 127.05367289 -97.3532877 127.74940968 C-101.30243588 131.61819729 -105.26417879 135.47312667 -109.24738884 139.30684853 C-110.4528726 140.47045137 -111.65424949 141.63832563 -112.8512516 142.81065178 C-114.4807856 144.40474599 -116.12462048 145.98241632 -117.77349854 147.55645752 C-118.69160435 148.44410419 -119.60971016 149.33175087 -120.55563736 150.24629593 C-123 152 -123 152 -125.1857872 151.87073898 C-127.56206135 150.73023631 -129.49413826 149.32189075 -131.5625 147.6875 C-132.32691406 147.09324219 -133.09132813 146.49898437 -133.87890625 145.88671875 C-135.92964563 144.06258041 -137.39350342 142.21111982 -139 140 C-138.28970674 139.29062853 -137.57941347 138.58125706 -136.84759617 137.85038948 C-119.58645339 120.61141939 -102.32817392 103.3695869 -85.07291508 86.12472725 C-76.7284323 77.78540676 -68.38301231 69.44702818 -60.03540039 61.11083984 C-52.76194608 53.84733442 -45.49023512 46.58208904 -38.22063631 39.3147248 C-34.36929808 35.46469333 -30.51707627 31.61555518 -26.66276741 27.76849747 C-23.03852663 24.15102012 -19.41661307 20.53122936 -15.79650688 16.90961456 C-14.46421986 15.57760372 -13.1310691 14.24645617 -11.79701233 12.9162178 C-9.98212606 11.10627378 -8.17031301 9.29330928 -6.35926819 7.47952271 C-5.82523017 6.94839752 -5.29119214 6.41727234 -4.74097115 5.87005246 C-2.0320775 3.19044879 -2.0320775 3.19044879 0 0 Z " fill="#F7F7F7" transform="translate(476,90)"/>
<path d="M0 0 C8.01701946 -0.41467342 15.21930149 1.14060121 23 3 C21.44353952 6.72155957 19.1626523 9.08638444 16.32444763 11.92279053 C15.60627927 12.64458052 15.60627927 12.64458052 14.87360245 13.38095212 C13.2699826 14.99020248 11.65932133 16.59221203 10.04858398 18.19433594 C8.89679427 19.34719866 7.74543766 20.50049423 6.59448242 21.65419006 C3.46903732 24.78448229 0.33737838 27.90848935 -2.79556012 31.03127956 C-6.06953913 34.29648042 -9.33825042 37.56694674 -12.60765076 40.83673096 C-18.09627662 46.32442036 -23.58876205 51.80822254 -29.08374023 57.28955078 C-35.44573332 63.63579901 -41.80246514 69.98727826 -48.15622383 76.34176993 C-54.26094978 82.44710512 -60.36852271 88.54958343 -66.477705 94.65045929 C-69.08175035 97.25096515 -71.68493656 99.85232666 -74.28747749 102.45433807 C-77.34746677 105.51332657 -80.40998022 108.56976527 -83.47451019 111.62420464 C-84.60213969 112.74890114 -85.72891206 113.87445773 -86.85478783 115.00090981 C-88.38470449 116.5313134 -89.91763542 118.05862976 -91.45143127 119.58514404 C-92.31071008 120.442747 -93.16998888 121.30034996 -94.05530643 122.18394089 C-96 124 -96 124 -97 124 C-97.23344258 119.64674482 -97.3747943 115.29510562 -97.5 110.9375 C-97.56703125 109.70837891 -97.6340625 108.47925781 -97.703125 107.21289062 C-97.89647384 98.24633815 -97.89647384 98.24633815 -95.46484375 94.86572266 C-93.39391788 93.09621579 -91.22358088 91.57151915 -89 90 C-87.63192561 88.6488784 -86.29854691 87.26182371 -85 85.84375 C-84.34 85.13089844 -83.68 84.41804688 -83 83.68359375 C-82.34 82.96300781 -81.68 82.24242187 -81 81.5 C-76.44377655 76.52552947 -71.85567608 71.84311706 -66.6640625 67.52539062 C-64.76572354 65.90698711 -64.76572354 65.90698711 -63 63 C-62.34 63 -61.68 63 -61 63 C-60.67 62.01 -60.34 61.02 -60 60 C-59.34 60 -58.68 60 -58 60 C-57.74025391 59.41573242 -57.48050781 58.83146484 -57.21289062 58.22949219 C-55.915344 55.84438836 -54.50658878 54.24809363 -52.59375 52.328125 C-51.93246094 51.66425781 -51.27117187 51.00039062 -50.58984375 50.31640625 C-49.90019531 49.63449219 -49.21054687 48.95257813 -48.5 48.25 C-47.81035156 47.55261719 -47.12070312 46.85523438 -46.41015625 46.13671875 C-45.74886719 45.47800781 -45.08757812 44.81929687 -44.40625 44.140625 C-43.80103516 43.53766602 -43.19582031 42.93470703 -42.57226562 42.31347656 C-41 41 -41 41 -39 41 C-39 40.34 -39 39.68 -39 39 C-37.125 36.875 -37.125 36.875 -35 35 C-34.34 35 -33.68 35 -33 35 C-32.67 34.01 -32.34 33.02 -32 32 C-31.34 32 -30.68 32 -30 32 C-29.78085937 31.45633789 -29.56171875 30.91267578 -29.3359375 30.35253906 C-27.55895085 27.22332793 -25.15895025 24.87314601 -22.625 22.359375 C-21.83730225 21.56880707 -21.83730225 21.56880707 -21.03369141 20.76226807 C-19.92661117 19.65383072 -18.8170167 18.54789954 -17.70507812 17.44433594 C-15.99893025 15.74893699 -14.30375953 14.0430839 -12.609375 12.3359375 C-11.53189108 11.25977442 -10.45378733 10.18423149 -9.375 9.109375 C-8.86662598 8.59695251 -8.35825195 8.08453003 -7.83447266 7.55657959 C-4.22994091 4 -4.22994091 4 -2 4 C-1.34 2.68 -0.68 1.36 0 0 Z " fill="#F7F7F7" transform="translate(384,46)"/>
<path d="M0 0 C5.61 0 11.22 0 17 0 C17.83916912 5.65548662 18.67523439 11.31142061 19.50854492 16.96777344 C19.79189149 18.88814394 20.07605566 20.80839401 20.36108398 22.72851562 C20.77287326 25.5035859 21.18162722 28.27908969 21.58984375 31.0546875 C21.71592514 31.8998996 21.84200653 32.74511169 21.97190857 33.61593628 C22.82047686 39.4127956 23.41563261 45.15632607 24 51 C24.33 34.17 24.66 17.34 25 0 C28.63 0 32.26 0 36 0 C36 26.07 36 52.14 36 79 C30.39 79 24.78 79 19 79 C17.4731608 72.5210163 16.36290508 66.0929112 15.4921875 59.49609375 C15.37625244 58.64019653 15.26031738 57.78429932 15.14086914 56.90246582 C14.71472026 53.74804076 14.29523673 50.59271812 13.875 47.4375 C12.92625 40.363125 11.9775 33.28875 11 26 C10.67 43.49 10.34 60.98 10 79 C6.7 79 3.4 79 0 79 C0 52.93 0 26.86 0 0 Z " fill="#161616" transform="translate(642,334)"/>
<path d="M0 0 C20.63814181 0 20.63814181 0 26.7421875 5.59765625 C30.06608786 9.89580327 31.12118011 12.74623838 31.16113281 18.1105957 C31.17074036 19.15210281 31.1803479 20.19360992 31.19024658 21.26667786 C31.19449646 22.39168198 31.19874634 23.5166861 31.203125 24.67578125 C31.20882507 25.83369675 31.21452515 26.99161224 31.22039795 28.18461609 C31.22984996 30.63665858 31.23638272 33.0887138 31.24023438 35.54077148 C31.24993442 39.28717286 31.28095452 43.03302441 31.3125 46.77929688 C31.31903066 49.16145508 31.32428088 51.5436172 31.328125 53.92578125 C31.3404718 55.04471268 31.3528186 56.1636441 31.36553955 57.31648254 C31.34715108 63.75599488 31.0741063 68.70687341 26.46484375 73.64453125 C16.82011034 81.01991562 17.79057089 78 0 78 C0 52.26 0 26.52 0 0 Z " fill="#181818" transform="translate(518,334)"/>
<path d="M0 0 C20.63814181 0 20.63814181 0 26.7421875 5.59765625 C30.06608786 9.89580327 31.12118011 12.74623838 31.16113281 18.1105957 C31.17074036 19.15210281 31.1803479 20.19360992 31.19024658 21.26667786 C31.19449646 22.39168198 31.19874634 23.5166861 31.203125 24.67578125 C31.20882507 25.83369675 31.21452515 26.99161224 31.22039795 28.18461609 C31.22984996 30.63665858 31.23638272 33.0887138 31.24023438 35.54077148 C31.24993442 39.28717286 31.28095452 43.03302441 31.3125 46.77929688 C31.31903066 49.16145508 31.32428088 51.5436172 31.328125 53.92578125 C31.3404718 55.04471268 31.3528186 56.1636441 31.36553955 57.31648254 C31.34715108 63.75599488 31.0741063 68.70687341 26.46484375 73.64453125 C16.82011034 81.01991562 17.79057089 78 0 78 C0 52.26 0 26.52 0 0 Z " fill="#181818" transform="translate(375,334)"/>
<path d="M0 0 C3.79320001 1.36672139 6.42854459 3.23805945 8.875 6.5 C10.67296918 10.49548706 11.13217755 13.91262894 11.19287109 18.28417969 C11.21696548 19.86667511 11.21696548 19.86667511 11.24154663 21.48114014 C11.286198 26.29861663 11.32705571 31.11595855 11.35009766 35.93359375 C11.3666531 38.47079646 11.39393727 41.00795261 11.43212891 43.54492188 C11.48701825 47.2124845 11.50879092 50.87895641 11.5234375 54.546875 C11.54610687 55.67422058 11.56877625 56.80156616 11.59213257 57.96307373 C11.5734653 64.95571288 10.59077841 69.6053412 6 75 C2.16832396 78.60628333 -2.20865159 78.62097094 -7.26953125 78.484375 C-11.63525678 77.70991153 -14.38274296 75.51765451 -17 72 C-18.74427775 68.30710368 -19.2589764 65.36504975 -19.29052734 61.29516602 C-19.30328705 60.17372696 -19.31604675 59.0522879 -19.32919312 57.89686584 C-19.33141876 56.69468918 -19.33364441 55.49251251 -19.3359375 54.25390625 C-19.3425943 53.01003647 -19.3492511 51.76616669 -19.35610962 50.48460388 C-19.36622681 47.85620603 -19.37092693 45.22778254 -19.37060547 42.59936523 C-19.3704426 39.90963951 -19.38437775 37.22059249 -19.41162109 34.53100586 C-19.44825818 30.64676109 -19.4580778 26.76330653 -19.4609375 22.87890625 C-19.48249405 21.0786776 -19.48249405 21.0786776 -19.50448608 19.24208069 C-19.46960452 12.86700313 -19.3791227 8.79744336 -15 4 C-10.25428396 -0.19388859 -6.10982138 -1.05195185 0 0 Z " fill="#1A1A1A" transform="translate(620,334)"/>
<path d="M0 0 C19 0 19 0 26 4 C29.59135886 8.96043535 29.45301826 13.88712611 29.43359375 19.78125 C29.4388356 20.71296021 29.44407745 21.64467041 29.44947815 22.60461426 C29.45588102 24.56794237 29.4545839 26.53130893 29.44604492 28.49462891 C29.43752671 31.49060568 29.4663337 34.48467964 29.49804688 37.48046875 C29.49965893 39.3932286 29.49908127 41.30599181 29.49609375 43.21875 C29.51294472 44.55492371 29.51294472 44.55492371 29.53013611 45.91809082 C29.46783683 51.50369065 28.56213708 54.48279408 25 59 C23.65853856 63.02438433 24.81885933 64.57294058 26.4375 68.4375 C28.08197206 72.37616741 29 74.69237333 29 79 C25.37 79 21.74 79 18 79 C17.16080602 76.73117913 16.32848276 74.46022973 15.5 72.1875 C15.26152344 71.54490234 15.02304688 70.90230469 14.77734375 70.24023438 C13.72931254 67.35066261 13 65.09923939 13 62 C12.01 62 11.02 62 10 62 C10 67.61 10 73.22 10 79 C6.7 79 3.4 79 0 79 C0 52.93 0 26.86 0 0 Z " fill="#141414" transform="translate(174,334)"/>
<path d="M0 0 C5.61 0 11.22 0 17 0 C20.36276444 3.36276444 20.3579855 4.48521934 20.41769409 9.04034424 C20.41094162 10.27708893 20.41094162 10.27708893 20.40405273 11.53881836 C20.41091599 12.41065262 20.41777924 13.28248688 20.42485046 14.18074036 C20.44317564 17.06727308 20.43927277 19.95326524 20.43359375 22.83984375 C20.43815291 24.84379759 20.44345769 26.84774985 20.44947815 28.85169983 C20.45842057 33.05411119 20.45597338 37.25633264 20.44604492 41.45874023 C20.43455574 46.84716812 20.45476035 52.23494066 20.48396206 57.62328243 C20.50229876 61.7625394 20.50203661 65.9016386 20.49632454 70.04092598 C20.496171 72.02767417 20.50224182 74.01443284 20.51461601 76.0011425 C20.52947588 78.77844343 20.51888588 81.55452464 20.50170898 84.33178711 C20.51137695 85.15425934 20.52104492 85.97673157 20.53100586 86.8241272 C20.46049008 92.26250791 20.1217231 92.8782769 16 97 C10.72 97 5.44 97 0 97 C0 64.99 0 32.98 0 0 Z " fill="#FAFAFA" transform="translate(295,462)"/>
<path d="M0 0 C2.09799988 17.66264859 2.09799988 17.66264859 -2.6484375 24.421875 C-5.81341938 28.25086515 -9.35588072 31.63489681 -13 35 C-14.27727436 36.24734456 -15.54822017 37.50120507 -16.8125 38.76171875 C-17.65941406 39.60222778 -17.65941406 39.60222778 -18.5234375 40.4597168 C-20.14695482 42.09945321 -20.14695482 42.09945321 -21.9375 44.5 C-24.32976569 47.39971599 -27.0062772 49.67758109 -29.859375 52.11328125 C-31.9989414 53.99906696 -34.00146666 55.96605958 -36 58 C-51.09158698 73.23725867 -69.24095935 85.94265874 -86.75 98.25 C-87.41757324 98.72824219 -88.08514648 99.20648438 -88.77294922 99.69921875 C-92.21339931 102.08426721 -93.69810601 103 -98 103 C-98.99 102.34 -99.98 101.68 -101 101 C-99.53759779 97.63303466 -97.67688607 95.42566233 -95.0904541 92.83648682 C-94.27442215 92.01481522 -93.4583902 91.19314362 -92.61763 90.34657288 C-91.27259651 89.00761208 -91.27259651 89.00761208 -89.90039062 87.64160156 C-88.94727252 86.68577259 -87.99458024 85.72951884 -87.0422821 84.77287292 C-84.45817533 82.17965376 -81.8677886 79.5927943 -79.27595329 77.00730228 C-76.5659433 74.30235527 -73.8608157 71.59253269 -71.15490723 68.88348389 C-66.61223529 64.33717443 -62.0653645 59.79509633 -57.51611328 55.25537109 C-52.25115202 50.00130706 -46.99345225 44.74005898 -41.73944139 39.4750464 C-37.23097977 34.95752142 -32.71864809 30.44388987 -28.20303297 25.93351531 C-25.50471975 23.23832536 -22.80778853 20.54178989 -20.11433411 17.84174347 C-17.58423821 15.30588812 -15.04933425 12.77494122 -12.51056862 10.24776649 C-11.13116563 8.87228682 -9.75670673 7.4918546 -8.38237 6.11131287 C-7.56633804 5.30092056 -6.75030609 4.49052826 -5.9095459 3.65557861 C-5.19867577 2.94546253 -4.48780563 2.23534645 -3.75539398 1.5037117 C-2 0 -2 0 0 0 Z " fill="#F8F8F8" transform="translate(478,159)"/>
<path d="M0 0 C4.95 0 9.9 0 15 0 C16.96875455 10.66306812 18.88993113 21.3337682 20.75390625 32.015625 C20.90732986 32.89468506 21.06075348 33.77374512 21.21882629 34.67944336 C21.99374553 39.12252568 22.76661284 43.56595663 23.53735352 48.00976562 C23.8293416 49.68884527 24.12157157 51.36788288 24.4140625 53.046875 C24.55342728 53.84755402 24.69279205 54.64823303 24.83638 55.47317505 C25.69405562 60.36357449 26.61329352 65.23418983 27.66894531 70.08642578 C28.18869025 73.09067416 28.13218325 75.95978524 28 79 C26.35425434 79.02688151 24.70838587 79.04634123 23.0625 79.0625 C22.14597656 79.07410156 21.22945313 79.08570313 20.28515625 79.09765625 C18 79 18 79 17 78 C16.70218959 76.34493689 16.46142846 74.67951847 16.24609375 73.01171875 C16.11396484 71.99529297 15.98183594 70.97886719 15.84570312 69.93164062 C15.64364258 68.32579102 15.64364258 68.32579102 15.4375 66.6875 C15.29892578 65.62853516 15.16035156 64.56957031 15.01757812 63.47851562 C14.4777825 59.26917342 14 55.2507433 14 51 C10.37 51 6.74 51 3 51 C2.79503906 52.68609375 2.59007812 54.3721875 2.37890625 56.109375 C2.10690128 58.3229327 1.8347587 60.53647349 1.5625 62.75 C1.42779297 63.86117187 1.29308594 64.97234375 1.15429688 66.1171875 C1.02216797 67.18710937 0.89003906 68.25703125 0.75390625 69.359375 C0.63345947 70.34389648 0.5130127 71.32841797 0.38891602 72.34277344 C0 75 0 75 -1 79 C-4.3 79 -7.6 79 -11 79 C-11.25187203 72.62224034 -10.27676777 66.59684774 -9.25 60.3125 C-8.88139634 57.99371426 -8.51426113 55.67469471 -8.1484375 53.35546875 C-7.95862305 52.15325684 -7.76880859 50.95104492 -7.57324219 49.71240234 C-6.44149335 42.3830272 -5.42155371 35.03742289 -4.39550781 27.69262695 C-3.37490953 20.44092309 -2.23194914 13.21863229 -1 6 C-0.67 4.02 -0.34 2.04 0 0 Z " fill="#181818" transform="translate(425,334)"/>
<path d="M0 0 C4.95 0 9.9 0 15 0 C15.43082886 2.50980469 15.43082886 2.50980469 15.87036133 5.0703125 C16.83125935 10.66631113 17.7932996 16.26211263 18.75607777 21.85778809 C19.3384272 25.24264844 19.920351 28.62758069 20.5012207 32.01269531 C21.1726702 35.92535784 21.84579083 39.83773123 22.51953125 43.75 C22.73642609 45.01078369 22.95332092 46.27156738 23.17678833 47.57055664 C24.53418844 55.42193908 25.96109152 63.25376884 27.52612305 71.06640625 C28 74 28 74 28 79 C24.37 79 20.74 79 17 79 C16.49499905 75.4589814 15.9958332 71.91730387 15.5 68.375 C15.35691406 67.37597656 15.21382812 66.37695312 15.06640625 65.34765625 C14.93105469 64.37441406 14.79570312 63.40117187 14.65625 62.3984375 C14.53056641 61.50817871 14.40488281 60.61791992 14.27539062 59.70068359 C13.98103065 56.81397257 14 53.90168026 14 51 C10.04 51 6.08 51 2 51 C1.95101562 52.11117187 1.90203125 53.22234375 1.8515625 54.3671875 C1.45918143 62.42957634 0.87654748 70.11850057 -1 78 C-4.3 78 -7.6 78 -11 78 C-11.39815252 70.00075387 -10.05225793 62.42738292 -8.66366577 54.58813477 C-7.95775485 50.59816269 -7.27652925 46.60402429 -6.59765625 42.609375 C-6.46063797 41.8042749 -6.32361969 40.9991748 -6.18244934 40.16967773 C-4.65251453 31.08595767 -3.40634858 21.96937328 -2.20605469 12.83691406 C-2.05942383 11.72541992 -1.91279297 10.61392578 -1.76171875 9.46875 C-1.63756592 8.50388672 -1.51341309 7.53902344 -1.38549805 6.54492188 C-1 4 -1 4 0 0 Z " fill="#181818" transform="translate(136,334)"/>
<path d="M0 0 C3.3 0 6.6 0 10 0 C10 8.91 10 17.82 10 27 C13.3 27 16.6 27 20 27 C20 18.09 20 9.18 20 0 C23.3 0 26.6 0 30 0 C30 25.74 30 51.48 30 78 C26.7 78 23.4 78 20 78 C20 64.47 20 50.94 20 37 C16.7 37 13.4 37 10 37 C10 50.53 10 64.06 10 78 C6.7 78 3.4 78 0 78 C0 52.26 0 26.52 0 0 Z " fill="#111111" transform="translate(85,334)"/>
<path d="M0 0 C4.95520521 2.57289501 8.49116963 5.98233926 11 11 C11.07181821 13.71760108 11.09299506 16.40859388 11.0625 19.125 C11.05798828 19.87910156 11.05347656 20.63320313 11.04882812 21.41015625 C11.03703499 23.27347127 11.01909942 25.13674555 11 27 C7.37 27 3.74 27 0 27 C-0.33 22.38 -0.66 17.76 -1 13 C-3.475 12.505 -3.475 12.505 -6 12 C-7.89284246 13.89284246 -7.5163746 16.7027564 -7.6875 19.25 C-7.63525077 29.54309855 -1.22757002 35.52255763 5.4453125 42.58984375 C10.49179406 48.45931783 11.72952879 53.12256321 11.8125 60.6875 C11.8242627 61.48365723 11.83602539 62.27981445 11.84814453 63.10009766 C11.6494285 69.03812764 9.9007259 73.47521258 6 78 C1.29968437 80.78537223 -2.57674513 81.67790686 -8 81 C-12.50176257 79.40779766 -16.10799913 76.81282508 -18.35546875 72.48046875 C-19.9021926 66.52792546 -19.2634004 60.09479264 -19 54 C-15.37 54 -11.74 54 -8 54 C-7.67 58.62 -7.34 63.24 -7 68 C-2.52297636 69.06537205 -2.52297636 69.06537205 0 69 C1.11083969 55.5203876 -4.91817957 48.04560424 -13 38 C-13.56460938 37.35724121 -14.12921875 36.71448242 -14.7109375 36.05224609 C-19.05274156 30.88152872 -19.89000566 27.05314273 -19.625 20.375 C-19.63144531 19.55515625 -19.63789062 18.7353125 -19.64453125 17.890625 C-19.54875556 12.47494506 -18.56102834 9.28763522 -15 5 C-10.10768607 0.69010439 -6.59116812 -0.88538079 0 0 Z " fill="#171717" transform="translate(579,332)"/>
<path d="M0 0 C3.63 0 7.26 0 11 0 C12.65 12.21 14.3 24.42 16 37 C17.65 24.79 19.3 12.58 21 0 C24.63 0 28.26 0 32 0 C31.25604118 8.68943899 30.30039674 17.34268546 29.25 26 C29.16584839 26.69745331 29.08169678 27.39490662 28.99499512 28.11349487 C26.93579232 45.11392919 24.4916442 62.05835751 22 79 C18.37 79 14.74 79 11 79 C9.22029459 71.77044113 8.21248495 64.54420386 7.31097412 57.1574707 C6.88829294 53.70001966 6.45095108 50.244445 6.01171875 46.7890625 C5.92553284 46.11067322 5.83934692 45.43228394 5.75054932 44.7333374 C5.05403342 39.30567649 4.25673563 33.90034446 3.375 28.5 C2.45838229 22.8823376 1.57924513 17.2653602 0.8125 11.625 C0.65394531 10.46226562 0.49539063 9.29953125 0.33203125 8.1015625 C0 5 0 5 0 0 Z " fill="#171717" transform="translate(454,334)"/>
<path d="M0 0 C8.58 0 17.16 0 26 0 C26 3.63 26 7.26 26 11 C21.05 11 16.1 11 11 11 C11 16.28 11 21.56 11 27 C15.95 27 20.9 27 26 27 C26 30.3 26 33.6 26 37 C21.05 37 16.1 37 11 37 C11 47.23 11 57.46 11 68 C15.95 68 20.9 68 26 68 C26 71.63 26 75.26 26 79 C17.42 79 8.84 79 0 79 C0 52.93 0 26.86 0 0 Z " fill="#1C1C1C" transform="translate(251,334)"/>
<path d="M0 0 C3.63 0 7.26 0 11 0 C11.98613357 3.0187147 12.964054 6.03969401 13.9375 9.0625 C14.21529297 9.91005859 14.49308594 10.75761719 14.77929688 11.63085938 C16.31866841 16.43444044 17.46212651 20.98211697 18 26 C18.66 26 19.32 26 20 26 C20.08636719 25.45214844 20.17273438 24.90429688 20.26171875 24.33984375 C21.26032405 18.7055111 22.75314529 13.35520647 24.5625 7.9375 C24.78446045 7.27032959 25.0064209 6.60315918 25.23510742 5.91577148 C26.86493631 1.13506369 26.86493631 1.13506369 28 0 C29.85287502 -0.07226502 31.70833878 -0.0838122 33.5625 -0.0625 C34.57441406 -0.05347656 35.58632813 -0.04445313 36.62890625 -0.03515625 C37.41136719 -0.02355469 38.19382812 -0.01195312 39 0 C36.35856424 8.90232782 33.59612563 17.76650981 30.83129883 26.63110352 C30.23969696 28.52859043 29.6491353 30.42640157 29.05859375 32.32421875 C28.71111084 33.43885498 28.36362793 34.55349121 28.00561523 35.7019043 C27.67376221 36.79027588 27.34190918 37.87864746 27 39 C26.63608154 40.12970215 26.27216309 41.2594043 25.8972168 42.42333984 C24.92756596 46.28875067 24.65263585 49.9429799 24.5859375 53.90234375 C24.56657135 54.6249086 24.5472052 55.34747345 24.5272522 56.0919342 C24.46802395 58.37367375 24.42130145 60.65546533 24.375 62.9375 C24.33676777 64.4954633 24.29771308 66.05340666 24.2578125 67.61132812 C24.16237025 71.40738781 24.07813332 75.20354622 24 79 C20.37 79 16.74 79 13 79 C13.00112793 78.04971924 13.00225586 77.09943848 13.00341797 76.12036133 C12.97791236 58.57975232 12.88560615 42.11222719 6.85693359 25.43115234 C5.28230123 20.96386201 3.97621734 16.41370441 2.625 11.875 C2.36243408 11.02623291 2.09986816 10.17746582 1.8293457 9.30297852 C1.58917725 8.51979248 1.34900879 7.73660645 1.1015625 6.9296875 C0.88838379 6.24116699 0.67520508 5.55264648 0.45556641 4.84326172 C0 3 0 3 0 0 Z " fill="#191919" transform="translate(288,334)"/>
<path d="M0 0 C-1.11726439 3.35179318 -1.95449967 4.01707405 -4.625 6.1875 C-7.51614633 8.63108453 -10.06089318 11.10566817 -12.5 14 C-15.48818655 17.53773811 -18.73585211 20.50843564 -22.30078125 23.45703125 C-24.23268554 25.08567983 -24.23268554 25.08567983 -26 28 C-26.66 28 -27.32 28 -28 28 C-28.33 28.99 -28.66 29.98 -29 31 C-29.66 31 -30.32 31 -31 31 C-31.33 31.99 -31.66 32.98 -32 34 C-32.66 34 -33.32 34 -34 34 C-34.33 34.99 -34.66 35.98 -35 37 C-35.66 37 -36.32 37 -37 37 C-37.37125 37.85851562 -37.37125 37.85851562 -37.75 38.734375 C-39.19316199 41.35010611 -40.88216222 43.14773456 -43 45.25 C-43.70125 45.95640625 -44.4025 46.6628125 -45.125 47.390625 C-47 49 -47 49 -49 49 C-49.04934926 43.34001954 -49.08569529 37.68016364 -49.10986328 32.02001953 C-49.11993582 30.09356506 -49.13359443 28.16712592 -49.15087891 26.24072266 C-49.17507241 23.47554748 -49.18647036 20.710574 -49.1953125 17.9453125 C-49.20563507 17.0806839 -49.21595764 16.2160553 -49.22659302 15.32522583 C-49.22699106 13.21546479 -49.12265243 11.10619282 -49 9 C-46.08164171 6.08164171 -42.68669143 6.16707976 -38.75 5.625 C-30.2521647 4.38183631 -21.81918023 2.90367487 -13.38769531 1.27001953 C-8.8567794 0.4166221 -4.63646353 -0.22224371 0 0 Z " fill="#F3F3F3" transform="translate(335,53)"/>
<path d="M0 0 C3.3 0 6.6 0 10 0 C10 22.44 10 44.88 10 68 C14.95 68 19.9 68 25 68 C25 71.3 25 74.6 25 78 C16.75 78 8.5 78 0 78 C0 52.26 0 26.52 0 0 Z " fill="#111111" transform="translate(215,334)"/>
<path d="M0 0 C3.3 0 6.6 0 10 0 C10 25.74 10 51.48 10 78 C6.7 78 3.4 78 0 78 C0 52.26 0 26.52 0 0 Z " fill="#121212" transform="translate(497,334)"/>
<path d="M0 0 C6 0 6 0 8.34179688 1.82202148 C10.77048711 6.47665352 10.57270126 10.66895583 10.53125 15.84765625 C10.5350769 16.89650497 10.53890381 17.9453537 10.54284668 19.02598572 C10.54556416 21.23909467 10.53821454 23.45223582 10.52148438 25.6652832 C10.50005202 29.05427492 10.52130376 32.44115177 10.546875 35.83007812 C10.54423212 37.98177551 10.53910796 40.13347159 10.53125 42.28515625 C10.53934692 43.29876724 10.54744385 44.31237823 10.55578613 45.35670471 C10.46372364 52.25341313 10.46372364 52.25341313 8.34179688 55.66967773 C6 57 6 57 0 57 C0 38.19 0 19.38 0 0 Z " fill="#F3F3F3" transform="translate(529,345)"/>
<path d="M0 0 C6 0 6 0 8.34179688 1.82202148 C10.77048711 6.47665352 10.57270126 10.66895583 10.53125 15.84765625 C10.5350769 16.89650497 10.53890381 17.9453537 10.54284668 19.02598572 C10.54556416 21.23909467 10.53821454 23.45223582 10.52148438 25.6652832 C10.50005202 29.05427492 10.52130376 32.44115177 10.546875 35.83007812 C10.54423212 37.98177551 10.53910796 40.13347159 10.53125 42.28515625 C10.53934692 43.29876724 10.54744385 44.31237823 10.55578613 45.35670471 C10.46372364 52.25341313 10.46372364 52.25341313 8.34179688 55.66967773 C6 57 6 57 0 57 C0 38.19 0 19.38 0 0 Z " fill="#F2F2F2" transform="translate(386,345)"/>
<path d="M0 0 C4.55555556 0.55555556 4.55555556 0.55555556 6 2 C6.10397018 3.67708424 6.13852909 5.35852791 6.14526367 7.03881836 C6.15164352 8.11340805 6.15802338 9.18799774 6.16459656 10.29515076 C6.16570938 11.46489944 6.1668222 12.63464813 6.16796875 13.83984375 C6.17129715 15.03227188 6.17462555 16.22470001 6.17805481 17.45326233 C6.18312916 19.98112603 6.18546298 22.50899645 6.18530273 25.03686523 C6.1874886 28.91726654 6.20563757 32.79738346 6.22460938 36.67773438 C6.22754323 39.12760319 6.22952808 41.57747336 6.23046875 44.02734375 C6.23765427 45.19506821 6.24483978 46.36279266 6.25224304 47.56590271 C6.24916641 48.64364456 6.24608978 49.72138641 6.24291992 50.83178711 C6.24434494 51.78363388 6.24576996 52.73548065 6.24723816 53.71617126 C6 56 6 56 4 58 C-0.55555556 57.44444444 -0.55555556 57.44444444 -2 56 C-2.10397018 54.32291576 -2.13852909 52.64147209 -2.14526367 50.96118164 C-2.15164352 49.88659195 -2.15802338 48.81200226 -2.16459656 47.70484924 C-2.16570938 46.53510056 -2.1668222 45.36535187 -2.16796875 44.16015625 C-2.17129715 42.96772812 -2.17462555 41.77529999 -2.17805481 40.54673767 C-2.18312916 38.01887397 -2.18546298 35.49100355 -2.18530273 32.96313477 C-2.1874886 29.08273346 -2.20563757 25.20261654 -2.22460938 21.32226562 C-2.22754323 18.87239681 -2.22952808 16.42252664 -2.23046875 13.97265625 C-2.23765427 12.80493179 -2.24483978 11.63720734 -2.25224304 10.43409729 C-2.24916641 9.35635544 -2.24608978 8.27861359 -2.24291992 7.16821289 C-2.24434494 6.21636612 -2.24576996 5.26451935 -2.24723816 4.28382874 C-2 2 -2 2 0 0 Z " fill="#F9F9F9" transform="translate(614,344)"/>
<path d="M0 0 C2.64 0 5.28 0 8 0 C10.0700132 2.0700132 9.16409695 6.48765925 9.16796875 9.33984375 C9.17129715 10.17713516 9.17462555 11.01442657 9.17805481 11.87709045 C9.18312756 13.65169728 9.18546303 15.42631367 9.18530273 17.20092773 C9.18748797 19.92252256 9.20563633 22.64371143 9.22460938 25.36523438 C9.22754342 27.08593611 9.22952814 28.80663977 9.23046875 30.52734375 C9.23765427 31.34508774 9.24483978 32.16283173 9.25224304 33.00535583 C9.22882204 38.77117796 9.22882204 38.77117796 7 41 C4.69 41 2.38 41 0 41 C0 27.47 0 13.94 0 0 Z " fill="#EFEFEF" transform="translate(184,345)"/>
<path d="M0 0 C9.57 0 19.14 0 29 0 C29 2.97 29 5.94 29 9 C19.43 9 9.86 9 0 9 C0 6.03 0 3.06 0 0 Z " fill="#111111" transform="translate(335,368)"/>
<path d="M0 0 C0.33 0 0.66 0 1 0 C1.50404219 3.91615756 2.00253233 7.8330023 2.5 11.75 C2.64308594 12.86117188 2.78617187 13.97234375 2.93359375 15.1171875 C3.06894531 16.18710937 3.20429688 17.25703125 3.34375 18.359375 C3.46943359 19.34389648 3.59511719 20.32841797 3.72460938 21.34277344 C4 24 4 24 4 28 C1.36 28 -1.28 28 -4 28 C-3.52697632 23.70763274 -3.04554646 19.41624996 -2.5625 15.125 C-2.42779297 13.90167969 -2.29308594 12.67835938 -2.15429688 11.41796875 C-2.02216797 10.25136719 -1.89003906 9.08476562 -1.75390625 7.8828125 C-1.63345947 6.80402832 -1.5130127 5.72524414 -1.38891602 4.61376953 C-1 2 -1 2 0 0 Z " fill="#E8E8E8" transform="translate(433,347)"/>
<path d="M0 0 C0.66 0.33 1.32 0.66 2 1 C2.50244141 3.40844727 2.50244141 3.40844727 2.8515625 6.56640625 C2.98046875 7.69111328 3.109375 8.81582031 3.2421875 9.97460938 C3.36851562 11.15861328 3.49484375 12.34261719 3.625 13.5625 C3.7590625 14.75037109 3.893125 15.93824219 4.03125 17.16210938 C4.36243088 20.10725367 4.68494779 23.05309385 5 26 C2.36 26 -0.28 26 -3 26 C-2.39214597 17.26609735 -1.31858334 8.6540033 0 0 Z " fill="#ECECEC" transform="translate(143,349)"/>
</svg>
